<?xml version="1.0" encoding="utf-8"?>
<!-- Generator: Adobe Illustrator 14.0.0, SVG Export Plug-In . SVG Version: 6.00 Build 43363)  -->
<!DOCTYPE svg PUBLIC "-//W3C//DTD SVG 1.1//EN" "http://www.w3.org/Graphics/SVG/1.1/DTD/svg11.dtd">
<svg version="1.1" id="Layer_1" xmlns="http://www.w3.org/2000/svg" xmlns:xlink="http://www.w3.org/1999/xlink" x="0px" y="0px"
	 width="800px" height="180px" viewBox="0 0 800 180" enable-background="new 0 0 800 180" xml:space="preserve">
<g>
	<g>
		<polygon points="246.526,81.922 227.757,81.922 227.757,56.794 215.218,56.794 215.218,122.635 227.757,122.635 227.757,94.723 
			246.526,94.723 246.526,122.635 259.066,122.635 259.066,56.794 246.526,56.794 		"/>
		<path d="M315.391,55.708c-5.343,0-9.968,1.271-13.747,3.781c-3.771,2.506-6.857,6.346-9.176,11.417
			c-2.299,5.028-3.464,11.487-3.464,19.201c0,10.674,2.598,19.213,7.722,25.378c4.559,5.466,10.854,8.238,18.708,8.238
			c7.798,0,14.065-2.804,18.624-8.328c5.122-6.165,7.72-14.806,7.72-25.679c0-10.755-2.457-19.189-7.303-25.065
			C329.575,58.714,323.155,55.708,315.391,55.708z M315.457,110.706c-3.832,0-6.967-1.674-9.583-5.114
			c-2.643-3.476-3.982-8.832-3.982-15.92c0-7.233,1.296-12.609,3.851-15.987c2.525-3.335,5.702-4.958,9.714-4.958
			c4.007,0,7.161,1.607,9.643,4.915c2.516,3.343,3.791,8.664,3.791,15.815c0,7.288-1.312,12.73-3.9,16.182
			C322.436,109.048,319.316,110.706,315.457,110.706z"/>
		<polygon points="367.318,122.635 379.858,122.635 379.858,95.505 401.804,95.505 401.804,82.708 379.858,82.708 379.858,69.599 
			405.201,69.599 405.201,56.794 367.318,56.794 		"/>
		<polygon points="435.182,122.635 447.72,122.635 447.72,95.505 469.666,95.505 469.666,82.708 447.72,82.708 447.72,69.599 
			473.063,69.599 473.063,56.794 435.182,56.794 		"/>
		<polygon points="528.664,97.222 518.604,56.794 498.82,56.794 498.82,122.635 512.032,122.635 512.032,79.991 522.033,122.635 
			535.205,122.635 545.296,79.924 545.296,122.635 558.507,122.635 558.507,56.794 538.634,56.794 		"/>
		<path d="M602.402,56.794l-21.02,65.84h13.349l4.328-14.458h19.479l4.582,14.458h13.574l-21.645-65.84H602.402z M614.515,95.376
			h-11.624l5.755-19.225L614.515,95.376z"/>
		<polygon points="695.9,96.721 672.645,56.794 659.152,56.794 659.152,122.635 672.563,122.635 672.563,83.686 695.419,122.635 
			709.311,122.635 709.311,56.794 695.9,56.794 		"/>
		<polygon points="777.023,56.794 777.023,96.818 752.975,56.794 739.114,56.794 739.114,122.635 752.885,122.635 752.885,83.588 
			776.527,122.635 790.794,122.635 790.794,56.794 		"/>
	</g>
	<g>
		<path d="M218.029,171.374v-33.511h11.681c2.987,0,5.12,0.301,6.4,0.903c1.28,0.602,2.332,1.646,3.155,3.132
			c0.823,1.485,1.233,3.265,1.233,5.337c0,2.623-0.627,4.73-1.885,6.333c-1.259,1.6-3.045,2.604-5.36,3.015
			c1.189,0.856,2.17,1.787,2.948,2.804c0.778,1.013,1.835,2.83,3.177,5.45l3.337,6.537h-6.617l-4.016-7.292
			c-1.444-2.635-2.426-4.285-2.944-4.949c-0.518-0.661-1.067-1.118-1.646-1.373c-0.579-0.25-1.509-0.375-2.79-0.375h-1.142v13.989
			H218.029z M223.562,152.036h4.115c2.514,0,4.113-0.109,4.799-0.332c0.686-0.219,1.241-0.665,1.669-1.338
			c0.426-0.668,0.639-1.56,0.639-2.674c0-1.067-0.213-1.924-0.639-2.572c-0.428-0.646-1.007-1.091-1.738-1.338
			c-0.518-0.164-2.02-0.25-4.504-0.25h-4.342V152.036z"/>
		<path d="M263.85,154.483l-4.778-1.052c0.579-2.455,1.535-4.219,2.87-5.294c1.333-1.075,3.249-1.61,5.748-1.61
			c2.225,0,3.925,0.313,5.098,0.938c1.173,0.625,2.012,1.474,2.514,2.549s0.754,3.034,0.754,5.869l-0.045,7.506
			c0,2.104,0.082,3.672,0.25,4.7c0.168,1.032,0.48,2.127,0.938,3.284h-5.211l-0.687-2.651c-0.899,1.067-1.863,1.869-2.891,2.413
			c-1.028,0.539-2.123,0.809-3.28,0.809c-1.935,0-3.521-0.652-4.754-1.954c-1.235-1.307-1.851-3.042-1.851-5.208
			c0-1.377,0.25-2.573,0.752-3.594c0.504-1.023,1.212-1.841,2.127-2.451c0.915-0.609,2.377-1.153,4.389-1.626
			c2.438-0.563,4.137-1.091,5.097-1.58c0-1.345-0.094-2.232-0.286-2.654c-0.189-0.419-0.542-0.763-1.052-1.032
			s-1.229-0.403-2.16-0.403c-0.944,0-1.687,0.216-2.229,0.642C264.624,152.509,264.184,153.307,263.85,154.483z M261.541,142.802
			v-5.51h4.526v5.51H261.541z M270.89,159.715c-0.671,0.277-1.715,0.599-3.132,0.966c-1.63,0.426-2.696,0.899-3.2,1.419
			c-0.502,0.521-0.752,1.192-0.752,2.018c0,0.935,0.277,1.717,0.833,2.35c0.557,0.634,1.253,0.954,2.092,0.954
			c0.747,0,1.486-0.258,2.217-0.771c0.733-0.512,1.239-1.118,1.521-1.821c0.281-0.704,0.422-1.979,0.422-3.828V159.715z
			 M269.611,142.802v-5.51h4.526v5.51H269.611z"/>
		<path d="M308.55,171.374v-3.633c-0.729,1.318-1.687,2.347-2.874,3.089c-1.187,0.743-2.428,1.114-3.72,1.114
			c-1.308,0-2.479-0.344-3.515-1.028c-1.034-0.688-1.806-1.661-2.314-2.928c-0.51-1.267-0.764-3.104-0.764-5.513v-15.378h5.28
			v11.155c0,3.187,0.078,5.208,0.239,6.067c0.16,0.864,0.512,1.529,1.06,2.002c0.547,0.474,1.208,0.708,1.982,0.708
			c0.882,0,1.695-0.309,2.44-0.927c0.743-0.614,1.233-1.407,1.47-2.377c0.234-0.966,0.352-3.097,0.352-6.389v-10.24h5.28v24.276
			H308.55z"/>
		<path d="M332.771,147.098h4.846v3.316c0.87-1.295,1.822-2.269,2.858-2.917c1.036-0.646,2.156-0.97,3.36-0.97
			c1.278,0,2.389,0.32,3.325,0.962c0.937,0.637,1.703,1.606,2.297,2.901c0.884-1.295,1.832-2.265,2.846-2.901
			c1.013-0.642,2.092-0.962,3.233-0.962c1.357,0,2.526,0.324,3.509,0.974c0.983,0.648,1.73,1.571,2.24,2.779
			c0.51,1.205,0.766,3.058,0.766,5.561v15.533h-5.28v-13.892c0-2.424-0.213-4.039-0.642-4.84c-0.426-0.802-1.142-1.201-2.148-1.201
			c-1.173,0-2.117,0.56-2.834,1.682c-0.715,1.122-1.073,3.315-1.073,6.58v11.671h-5.28v-13.32c0-2.64-0.145-4.34-0.434-5.103
			c-0.381-1.005-1.151-1.51-2.309-1.51c-0.778,0-1.493,0.259-2.15,0.778c-0.655,0.521-1.126,1.278-1.416,2.275
			c-0.292,1.001-0.436,2.69-0.436,5.071v11.808h-5.28V147.098z"/>
		<path d="M390.64,147.098v5.122h-3.589v9.798c0,2.123,0.053,3.351,0.161,3.688c0.213,0.609,0.647,0.914,1.302,0.914
			c0.489,0,1.188-0.207,2.104-0.617l0.458,4.984c-1.22,0.638-2.598,0.958-4.139,0.958c-1.341,0-2.414-0.32-3.222-0.962
			c-0.809-0.641-1.349-1.563-1.625-2.768c-0.213-0.884-0.318-2.687-0.318-5.399V152.22h-2.424v-5.122h2.424v-4.82l5.28-3.749v8.569
			H390.64z"/>
		<path d="M420.117,163.672l5.235,1.075c-0.704,2.436-1.795,4.246-3.276,5.427c-1.479,1.181-3.28,1.771-5.399,1.771
			c-2.944,0-5.22-0.985-6.818-2.951c-1.893-2.291-2.839-5.497-2.839-9.618c0-4.063,0.95-7.315,2.858-9.755
			c1.614-2.061,3.702-3.093,6.259-3.093c2.851,0,5.083,1.052,6.698,3.159c1.86,2.412,2.791,5.966,2.791,10.67l-0.023,0.73h-13.191
			c0.031,1.928,0.465,3.422,1.298,4.477c0.833,1.052,1.838,1.58,3.015,1.58C418.42,167.144,419.551,165.986,420.117,163.672z
			 M420.391,157.158c-0.047-1.9-0.449-3.327-1.212-4.281c-0.763-0.958-1.669-1.436-2.721-1.436c-1.11,0-2.049,0.497-2.812,1.494
			c-0.778,1.009-1.157,2.416-1.142,4.223H420.391z"/>
		<path d="M461.502,154.253l-5.188,1.142c-0.383-2.541-1.587-3.815-3.612-3.815c-1.302,0-2.35,0.551-3.147,1.649
			c-0.798,1.103-1.196,2.96-1.196,5.571c0,2.89,0.398,4.931,1.192,6.123s1.857,1.787,3.187,1.787c0.993,0,1.811-0.337,2.451-1.017
			c0.642-0.677,1.103-1.877,1.377-3.602l5.188,1.075c-1.067,5.854-4.136,8.777-9.211,8.777c-3.245,0-5.653-1.235-7.226-3.71
			c-1.567-2.471-2.354-5.45-2.354-8.93c0-4.168,0.892-7.339,2.666-9.513c1.779-2.178,4.109-3.265,6.991-3.265
			c2.334,0,4.238,0.618,5.712,1.854C459.802,149.612,460.86,151.571,461.502,154.253z"/>
		<path d="M484.969,137.863v12.3c0.836-1.22,1.763-2.131,2.775-2.732c1.017-0.603,2.115-0.903,3.304-0.903
			c1.588,0,2.913,0.418,3.977,1.259c1.067,0.837,1.83,2.029,2.287,3.569c0.336,1.126,0.504,3.05,0.504,5.764v14.255h-5.281v-12.84
			c0-2.976-0.188-4.836-0.567-5.583c-0.531-1.005-1.438-1.51-2.713-1.51c-1.354,0-2.405,0.548-3.155,1.639
			c-0.755,1.091-1.13,3.128-1.13,6.119v12.175h-5.278v-33.511H484.969z"/>
		<path d="M535.498,171.374h-5.282v-12.402c0-2.486-0.098-4.144-0.297-4.969c-0.195-0.821-0.566-1.455-1.106-1.896
			c-0.544-0.441-1.157-0.665-1.842-0.665c-0.884,0-1.685,0.286-2.4,0.856c-0.716,0.575-1.22,1.365-1.509,2.369
			c-0.29,1.009-0.435,2.909-0.435,5.701v11.006h-5.278v-24.276h4.892v3.543c0.868-1.369,1.846-2.4,2.937-3.085
			s2.299-1.028,3.624-1.028c1.536,0,2.839,0.398,3.898,1.2c1.056,0.802,1.79,1.83,2.193,3.089c0.402,1.259,0.605,3.077,0.605,5.458
			V171.374z"/>
		<path d="M555.074,143.806v-5.942h5.282v5.942H555.074z M555.074,171.374v-24.276h5.282v24.276H555.074z"/>
		<path d="M579.804,171.374v-33.511h5.278v17.758l6.157-8.523h6.494l-6.811,8.888l7.292,15.389h-5.665l-5.048-10.924l-2.42,3.151
			v7.772H579.804z"/>
		<path d="M653.291,159.077v-5.669h11.956v13.349c-1.204,1.419-2.912,2.635-5.121,3.655c-2.209,1.024-4.426,1.532-6.65,1.532
			c-2.714,0-5.106-0.664-7.179-1.998c-2.072-1.333-3.714-3.331-4.927-5.989c-1.212-2.658-1.813-5.786-1.813-9.384
			c0-3.687,0.609-6.842,1.837-9.461c1.229-2.624,2.819-4.583,4.778-5.877s4.301-1.943,7.029-1.943c3.276,0,5.9,0.833,7.875,2.503
			c1.974,1.669,3.241,4.121,3.804,7.351l-5.485,1.255c-0.41-1.721-1.165-3.038-2.264-3.953c-1.095-0.915-2.404-1.372-3.93-1.372
			c-2.361,0-4.273,0.919-5.739,2.756c-1.462,1.834-2.193,4.638-2.193,8.398c0,4.039,0.794,7.108,2.377,9.212
			c1.357,1.813,3.194,2.721,5.509,2.721c1.083,0,2.205-0.254,3.37-0.763c1.17-0.508,2.209-1.204,3.124-2.084v-4.238H653.291z"/>
		<path d="M684.163,147.098h4.848v3.316c0.868-1.295,1.818-2.269,2.854-2.917c1.036-0.646,2.158-0.97,3.362-0.97
			c1.278,0,2.389,0.32,3.323,0.962c0.938,0.637,1.705,1.606,2.299,2.901c0.884-1.295,1.834-2.265,2.847-2.901
			c1.013-0.642,2.092-0.962,3.233-0.962c1.356,0,2.525,0.324,3.511,0.974c0.981,0.648,1.729,1.571,2.24,2.779
			c0.508,1.205,0.763,3.058,0.763,5.561v15.533h-5.278v-13.892c0-2.424-0.215-4.039-0.642-4.84
			c-0.426-0.802-1.142-1.201-2.146-1.201c-1.177,0-2.119,0.56-2.834,1.682c-0.72,1.122-1.075,3.315-1.075,6.58v11.671h-5.282v-13.32
			c0-2.64-0.145-4.34-0.435-5.103c-0.379-1.005-1.149-1.51-2.307-1.51c-0.777,0-1.493,0.259-2.15,0.778
			c-0.652,0.521-1.126,1.278-1.415,2.275c-0.289,1.001-0.434,2.69-0.434,5.071v11.808h-5.282V147.098z"/>
		<path d="M732.683,171.374v-33.511h5.282v12.046c0.806-1.126,1.693-1.971,2.659-2.537c0.966-0.563,2.002-0.845,3.112-0.845
			c2.346,0,4.324,1.06,5.946,3.183c1.619,2.123,2.432,5.251,2.432,9.388c0,4.124-0.832,7.295-2.49,9.516s-3.604,3.331-5.841,3.331
			c-1.142,0-2.268-0.352-3.378-1.063c-1.111-0.707-2.053-1.731-2.831-3.072v3.565H732.683z M737.918,158.71
			c0,2.092,0.199,3.691,0.595,4.79c0.395,1.103,0.958,1.938,1.692,2.51c0.731,0.574,1.498,0.86,2.308,0.86
			c1.157,0,2.149-0.606,2.971-1.822c0.825-1.216,1.235-3.136,1.235-5.767c0-2.765-0.414-4.763-1.247-5.994
			c-0.829-1.231-1.885-1.846-3.167-1.846c-1.216,0-2.252,0.595-3.108,1.787C738.345,154.421,737.918,156.247,737.918,158.71z"/>
		<path d="M770.662,171.374v-33.511h5.532v13.191h10.904v-13.191h5.529v33.511h-5.529V156.72h-10.904v14.654H770.662z"/>
	</g>
	<g>
		<path fill="#374284" d="M154.672,74.412h16.089c-1.021-5.513-2.59-10.838-4.647-15.905c-8.434-20.804-25.042-37.401-45.838-45.846
			c-5.069-2.057-10.398-3.582-15.907-4.606v16.05H73.759V8.055c-5.505,1.024-10.834,2.549-15.903,4.606
			c-20.792,8.445-37.403,25.042-45.836,45.846c-2.059,5.067-3.623,10.392-4.649,15.905h16.085v30.61H7.372
			c1.026,5.509,2.59,10.834,4.649,15.904c8.433,20.805,25.044,37.405,45.836,45.843c5.069,2.056,10.398,3.581,15.903,4.605v-16.05
			h30.609v16.05c5.509-1.024,10.838-2.55,15.907-4.605c20.796-8.438,37.404-25.038,45.838-45.843
			c2.057-5.07,3.623-10.396,4.647-15.904h-16.089V74.412z M147.578,120.926c-6.191,11.585-15.713,21.105-27.302,27.299v-9.704
			H57.856v9.712c-11.586-6.201-21.109-15.722-27.302-27.307h9.706V58.507h-9.706c6.193-11.588,15.715-21.113,27.302-27.306v9.708
			h62.419v-9.708c11.584,6.193,21.111,15.717,27.302,27.306h-9.708v62.419H147.578z"/>
		<polygon fill="#374284" points="100.156,83.463 78.029,83.463 78.029,56.966 63.042,56.966 63.042,122.459 78.029,122.459 
			78.029,94.438 100.156,94.438 100.156,122.459 115.089,122.459 115.089,56.966 100.156,56.966 		"/>
	</g>
</g>
</svg>
